<svg width="200" height="100" viewBox="0 0 200 100" fill="none" xmlns="http://www.w3.org/2000/svg">
  <path d="M100 90C144.183 90 180 54.1828 180 10H20C20 54.1828 55.8172 90 100 90Z" fill="#FF0000" fill-opacity="0.7"/>
  <path d="M100 80C138.66 80 170 48.6599 170 10H30C30 48.6599 61.3401 80 100 80Z" fill="#FF7F00" fill-opacity="0.7"/>
  <path d="M100 70C133.137 70 160 43.1371 160 10H40C40 43.1371 66.8629 70 100 70Z" fill="#FFFF00" fill-opacity="0.7"/>
  <path d="M100 60C127.614 60 150 37.6142 150 10H50C50 37.6142 72.3858 60 100 60Z" fill="#00FF00" fill-opacity="0.7"/>
  <path d="M100 50C122.091 50 140 32.0914 140 10H60C60 32.0914 77.9086 50 100 50Z" fill="#0000FF" fill-opacity="0.7"/>
  <path d="M100 40C116.569 40 130 26.5685 130 10H70C70 26.5685 83.4315 40 100 40Z" fill="#4B0082" fill-opacity="0.7"/>
  <path d="M100 30C111.046 30 120 21.0457 120 10H80C80 21.0457 88.9543 30 100 30Z" fill="#9400D3" fill-opacity="0.7"/>
</svg>
